<?xml version="1.0" encoding="UTF-8" standalone="no"?>
<svg width="800" height="400" viewBox="0 0 800 400" xmlns="http://www.w3.org/2000/svg">
  <!-- Fond -->
  <rect width="800" height="400" fill="#f5f5f5" />
  
  <!-- Grille ECG -->
  <g stroke="#ccc" stroke-width="0.5">
    <!-- Lignes horizontales -->
    <line x1="0" y1="50" x2="800" y2="50" />
    <line x1="0" y1="100" x2="800" y2="100" />
    <line x1="0" y1="150" x2="800" y2="150" />
    <line x1="0" y1="200" x2="800" y2="200" />
    <line x1="0" y1="250" x2="800" y2="250" />
    <line x1="0" y1="300" x2="800" y2="300" />
    <line x1="0" y1="350" x2="800" y2="350" />
    
    <!-- Lignes verticales -->
    <line x1="50" y1="0" x2="50" y2="400" />
    <line x1="100" y1="0" x2="100" y2="400" />
    <line x1="150" y1="0" x2="150" y2="400" />
    <line x1="200" y1="0" x2="200" y2="400" />
    <line x1="250" y1="0" x2="250" y2="400" />
    <line x1="300" y1="0" x2="300" y2="400" />
    <line x1="350" y1="0" x2="350" y2="400" />
    <line x1="400" y1="0" x2="400" y2="400" />
    <line x1="450" y1="0" x2="450" y2="400" />
    <line x1="500" y1="0" x2="500" y2="400" />
    <line x1="550" y1="0" x2="550" y2="400" />
    <line x1="600" y1="0" x2="600" y2="400" />
    <line x1="650" y1="0" x2="650" y2="400" />
    <line x1="700" y1="0" x2="700" y2="400" />
    <line x1="750" y1="0" x2="750" y2="400" />
  </g>
  
  <!-- Tracé ECG normal -->
  <polyline points="
    0,200 
    20,200 40,200 60,200 
    80,200 
    100,200 
    120,190 
    140,210 
    160,200 
    180,200 
    200,180 
    220,240 
    240,120 
    260,280 
    280,200 
    300,200 
    320,200 
    340,200 
    360,200 
    380,190 
    400,210 
    420,200 
    440,200 
    460,180 
    480,240 
    500,120 
    520,280 
    540,200 
    560,200 
    580,200 
    600,200 
    620,200 
    640,190 
    660,210 
    680,200 
    700,200 
    720,180 
    740,240 
    760,120 
    780,280 
    800,200" 
    fill="none" 
    stroke="#3f51b5" 
    stroke-width="2" />
  
  <!-- Étiquettes -->
  <text x="20" y="30" font-family="Arial" font-size="16" fill="#333">ECG Normal - Exemple</text>
  <text x="20" y="380" font-family="Arial" font-size="12" fill="#666">Fréquence cardiaque: 75 BPM</text>
  <text x="650" y="380" font-family="Arial" font-size="12" fill="#666">CardioAI Diagnostic</text>
</svg>
